{"title":"Straw.Dogs.2011.720p.BRRip.x264.Feel-Free (SEEDBOX SUPPORTED)","uid":6863831,"size":2784831759,"categoryP":"video","categoryS":"hd___movies","magnet":"?xt=urn:btih:769dee11637efb74c7680cd21a0dfe38cf9003b5&amp;dn=Straw.Dogs.2011.720p.BRRip.x264.Feel-Free+%28SEEDBOX+SUPPORTED%29&amp;tr=udp%3A%2F%2Ftracker.openbittorrent.com%3A80&amp;tr=udp%3A%2F%2Fopen.demonii.com%3A1337&amp;tr=udp%3A%2F%2Ftracker.coppersurfer.tk%3A6969&amp;tr=udp%3A%2F%2Fexodus.desync.com%3A6969","seeders":5,"leechers":2,"uploader":"Hackulus","files":-1,"time":1323017262,"description":"Plot:\nL.A. screenwriter David Sumner relocates with his wife to her hometown in the deep South. There, while tensions build between them, a brewing conflict with locals becomes a threat to them both\n &lt;a href=&quot;\nhttp://img854.imageshack.us/img854/6371/vlcsnap00001m.png&quot; rel=&quot;nofollow&quot; target=&quot;_NEW&quot;&gt;\nhttp://img854.imageshack.us/img854/6371/vlcsnap00001m.png&lt;/a&gt;\n\nGenre:Thriller\nLanguage:English\nIMDb:http://www.imdb.com/title/tt0999913/\nSource:1080p BluRay x264-SECTOR7 Thanks!\n\nFormat : MPEG-4\nFormat profile : Base Media\nCodec ID : isom\nFile size : 2.59 GiB\nDuration : 1h 49mn\nOverall bit rate : 3 379 Kbps\n\nVideo\nID : 1\nFormat : AVC\nFormat/Info : Advanced Video Codec\nFormat profile : &lt;a class=&quot;__cf_email__&quot; href=&quot;/cdn-cgi/l/email-protection&quot; data-cfemail=&quot;662e0f010e262a534857&quot;&gt;[email&amp;#160;protected]&lt;/a&gt;&lt;script cf-hash='f9e31' type=&quot;text/javascript&quot;&gt;\n/* &lt;![CDATA[ */!function(){try{var t=&quot;currentScript&quot;in document?document.currentScript:function(){for(var t=document.getElementsByTagName(&quot;script&quot;),e=t.length;e--;)if(t[e].getAttribute(&quot;cf-hash&quot;))return t[e]}();if(t&amp;&amp;t.previousSibling){var e,r,n,i,c=t.previousSibling,a=c.getAttribute(&quot;data-cfemail&quot;);if(a){for(e=&quot;&quot;,r=parseInt(a.substr(0,2),16),n=2;a.length-n;n+=2)i=parseInt(a.substr(n,2),16)^r,e+=String.fromCharCode(i);e=document.createTextNode(e),c.parentNode.replaceChild(e,c)}}}catch(u){}}();/* ]]&gt; */&lt;/script&gt;\nFormat settings, CABAC : Yes\nFormat settings, ReFrames : 3 frames\nCodec ID : avc1\nCodec ID/Info : Advanced Video Coding\nDuration : 1h 49mn\nBit rate mode : Variable\nBit rate : 3 000 Kbps\nMaximum bit rate : 21.3 Mbps\nWidth : 1 280 pixels\nHeight : 536 pixels\nDisplay aspect ratio : 2.35:1\nFrame rate mode : Constant\nFrame rate : 23.976 fps\nColor space : YUV\nChroma subsampling : 4:2:0\nBit depth : 8 bits\nScan type : Progressive\nBits/(Pixel*Frame) : 0.182\nStream size : 2.25 GiB (87%)\nWriting library : x264\n\nAudio\nID : 2\nFormat : AAC\nFormat/Info : Advanced Audio Codec\nFormat version : Version 4\nFormat profile : LC\nFormat settings, SBR : No\nCodec ID : 40\nDuration : 1h 49mn\nBit rate mode : Variable\nBit rate : 446 Kbps\nMaximum bit rate : 538 Kbps\nChannel(s) : 6 channels\nChannel positions : Front: L C R, Side: L R, LFE\nSampling rate : 48.0 KHz\nStream size : 350 MiB (13%)\n\n","torrent":{"xt":"urn:btih:769dee11637efb74c7680cd21a0dfe38cf9003b5","amp;dn":"Straw.Dogs.2011.720p.BRRip.x264.Feel-Free+%28SEEDBOX+SUPPORTED%29","amp;tr":["udp%3A%2F%2Ftracker.openbittorrent.com%3A80","udp%3A%2F%2Fopen.demonii.com%3A1337","udp%3A%2F%2Ftracker.coppersurfer.tk%3A6969","udp%3A%2F%2Fexodus.desync.com%3A6969"],"infoHash":"769dee11637efb74c7680cd21a0dfe38cf9003b5","infoHashBuffer":{"type":"Buffer","data":[118,157,238,17,99,126,251,116,199,104,12,210,26,13,254,56,207,144,3,181]},"announce":[],"urlList":[]}}